<mxfile host="app.diagrams.net" agent="Mozilla/5.0 (Windows NT 10.0; Win64; x64) AppleWebKit/537.36 (KHTML, like Gecko) Chrome/131.0.0.0 Safari/537.36" version="26.0.6">
  <diagram name="Page-1" id="74e2e168-ea6b-b213-b513-2b3c1d86103e">
    <mxGraphModel dx="1302" dy="711" grid="1" gridSize="10" guides="1" tooltips="1" connect="1" arrows="1" fold="1" page="1" pageScale="1" pageWidth="1100" pageHeight="850" background="none" math="0" shadow="0">
      <root>
        <mxCell id="0" />
        <mxCell id="1" parent="0" />
        <mxCell id="77e6c97f196da883-1" value="SignIn-Flow" style="swimlane;html=1;childLayout=stackLayout;startSize=20;rounded=0;shadow=0;labelBackgroundColor=none;strokeWidth=1;fontFamily=Verdana;fontSize=8;align=center;" parent="1" vertex="1">
          <mxGeometry x="70" y="40" width="720" height="750" as="geometry" />
        </mxCell>
        <mxCell id="77e6c97f196da883-2" value="CardStore" style="swimlane;startSize=20;fontColor=default;html=1;" parent="77e6c97f196da883-1" vertex="1">
          <mxGeometry y="20" width="160" height="730" as="geometry" />
        </mxCell>
        <mxCell id="I38uoZIhNBEOroFiXY-z-62" value="ShowCards" style="rounded=1;whiteSpace=wrap;html=1;shadow=0;labelBackgroundColor=none;strokeWidth=1;fontFamily=Verdana;fontSize=8;align=center;" vertex="1" parent="77e6c97f196da883-2">
          <mxGeometry x="40" y="600" width="70" height="45" as="geometry" />
        </mxCell>
        <mxCell id="77e6c97f196da883-3" value="Player" style="swimlane;html=1;startSize=20;" parent="77e6c97f196da883-1" vertex="1">
          <mxGeometry x="160" y="20" width="200" height="730" as="geometry" />
        </mxCell>
        <mxCell id="I38uoZIhNBEOroFiXY-z-10" value="Login" style="rounded=1;whiteSpace=wrap;html=1;shadow=0;labelBackgroundColor=none;strokeWidth=1;fontFamily=Verdana;fontSize=8;align=center;" vertex="1" parent="77e6c97f196da883-3">
          <mxGeometry x="45" y="65" width="70" height="45" as="geometry" />
        </mxCell>
        <mxCell id="I38uoZIhNBEOroFiXY-z-11" style="edgeStyle=orthogonalEdgeStyle;rounded=0;orthogonalLoop=1;jettySize=auto;html=1;entryX=0;entryY=0.5;entryDx=0;entryDy=0;exitX=1;exitY=0.5;exitDx=0;exitDy=0;" edge="1" parent="77e6c97f196da883-3" source="I38uoZIhNBEOroFiXY-z-10">
          <mxGeometry relative="1" as="geometry">
            <mxPoint x="140" y="87.21" as="targetPoint" />
            <mxPoint x="45" y="87.21" as="sourcePoint" />
          </mxGeometry>
        </mxCell>
        <mxCell id="I38uoZIhNBEOroFiXY-z-13" value="GetCards" style="rhombus;whiteSpace=wrap;html=1;rounded=0;shadow=0;labelBackgroundColor=none;strokeWidth=1;fontFamily=Verdana;fontSize=8;align=center;" vertex="1" parent="77e6c97f196da883-3">
          <mxGeometry x="140" y="65" width="60" height="46.25" as="geometry" />
        </mxCell>
        <mxCell id="I38uoZIhNBEOroFiXY-z-59" style="edgeStyle=orthogonalEdgeStyle;rounded=0;orthogonalLoop=1;jettySize=auto;html=1;entryX=1;entryY=0.5;entryDx=0;entryDy=0;" edge="1" parent="77e6c97f196da883-3" source="I38uoZIhNBEOroFiXY-z-52" target="I38uoZIhNBEOroFiXY-z-58">
          <mxGeometry relative="1" as="geometry" />
        </mxCell>
        <mxCell id="I38uoZIhNBEOroFiXY-z-52" value="Login Success" style="rounded=1;whiteSpace=wrap;html=1;shadow=0;labelBackgroundColor=none;strokeWidth=1;fontFamily=Verdana;fontSize=8;align=center;" vertex="1" parent="77e6c97f196da883-3">
          <mxGeometry x="90" y="460" width="70" height="45" as="geometry" />
        </mxCell>
        <mxCell id="I38uoZIhNBEOroFiXY-z-57" value="&lt;font style=&quot;font-size: 9px;&quot;&gt;Cards&lt;/font&gt;" style="ellipse;whiteSpace=wrap;html=1;aspect=fixed;" vertex="1" parent="77e6c97f196da883-3">
          <mxGeometry x="45" y="670" width="40" height="40" as="geometry" />
        </mxCell>
        <mxCell id="I38uoZIhNBEOroFiXY-z-60" style="edgeStyle=orthogonalEdgeStyle;rounded=0;orthogonalLoop=1;jettySize=auto;html=1;entryX=0.5;entryY=0;entryDx=0;entryDy=0;" edge="1" parent="77e6c97f196da883-3" source="I38uoZIhNBEOroFiXY-z-58" target="I38uoZIhNBEOroFiXY-z-57">
          <mxGeometry relative="1" as="geometry" />
        </mxCell>
        <mxCell id="I38uoZIhNBEOroFiXY-z-58" value="" style="rhombus;whiteSpace=wrap;html=1;rounded=0;shadow=0;labelBackgroundColor=none;strokeWidth=1;fontFamily=Verdana;fontSize=8;align=center;" vertex="1" parent="77e6c97f196da883-3">
          <mxGeometry x="35" y="598.75" width="60" height="46.25" as="geometry" />
        </mxCell>
        <mxCell id="77e6c97f196da883-4" value="Server" style="swimlane;html=1;startSize=20;" parent="77e6c97f196da883-1" vertex="1">
          <mxGeometry x="360" y="20" width="200" height="730" as="geometry" />
        </mxCell>
        <mxCell id="I38uoZIhNBEOroFiXY-z-16" style="edgeStyle=orthogonalEdgeStyle;rounded=0;orthogonalLoop=1;jettySize=auto;html=1;exitX=1;exitY=0.5;exitDx=0;exitDy=0;entryX=0;entryY=0.5;entryDx=0;entryDy=0;" edge="1" parent="77e6c97f196da883-4" source="77e6c97f196da883-8" target="I38uoZIhNBEOroFiXY-z-17">
          <mxGeometry relative="1" as="geometry">
            <mxPoint x="150" y="87.28571428571433" as="targetPoint" />
          </mxGeometry>
        </mxCell>
        <mxCell id="77e6c97f196da883-8" value="Get CardIDs From KV" style="rounded=1;whiteSpace=wrap;html=1;shadow=0;labelBackgroundColor=none;strokeWidth=1;fontFamily=Verdana;fontSize=8;align=center;" parent="77e6c97f196da883-4" vertex="1">
          <mxGeometry x="30" y="65" width="70" height="45" as="geometry" />
        </mxCell>
        <mxCell id="I38uoZIhNBEOroFiXY-z-18" style="edgeStyle=orthogonalEdgeStyle;rounded=0;orthogonalLoop=1;jettySize=auto;html=1;" edge="1" parent="77e6c97f196da883-4" source="I38uoZIhNBEOroFiXY-z-17">
          <mxGeometry relative="1" as="geometry">
            <mxPoint x="220" y="88.125" as="targetPoint" />
          </mxGeometry>
        </mxCell>
        <mxCell id="I38uoZIhNBEOroFiXY-z-25" style="edgeStyle=orthogonalEdgeStyle;rounded=0;orthogonalLoop=1;jettySize=auto;html=1;entryX=0.5;entryY=0;entryDx=0;entryDy=0;" edge="1" parent="77e6c97f196da883-4" source="I38uoZIhNBEOroFiXY-z-17" target="I38uoZIhNBEOroFiXY-z-26">
          <mxGeometry relative="1" as="geometry">
            <mxPoint x="160" y="140" as="targetPoint" />
            <Array as="points">
              <mxPoint x="160" y="140" />
            </Array>
          </mxGeometry>
        </mxCell>
        <mxCell id="I38uoZIhNBEOroFiXY-z-17" value="FetchCardIDs" style="rhombus;whiteSpace=wrap;html=1;rounded=0;shadow=0;labelBackgroundColor=none;strokeWidth=1;fontFamily=Verdana;fontSize=8;align=center;" vertex="1" parent="77e6c97f196da883-4">
          <mxGeometry x="130" y="65" width="60" height="46.25" as="geometry" />
        </mxCell>
        <mxCell id="I38uoZIhNBEOroFiXY-z-26" value="&lt;font style=&quot;font-size: 9px;&quot;&gt;PlayerID&lt;/font&gt;" style="ellipse;whiteSpace=wrap;html=1;aspect=fixed;" vertex="1" parent="77e6c97f196da883-4">
          <mxGeometry x="140" y="130" width="40" height="40" as="geometry" />
        </mxCell>
        <mxCell id="I38uoZIhNBEOroFiXY-z-32" style="edgeStyle=orthogonalEdgeStyle;rounded=0;orthogonalLoop=1;jettySize=auto;html=1;entryX=0;entryY=0.5;entryDx=0;entryDy=0;" edge="1" parent="77e6c97f196da883-4" source="I38uoZIhNBEOroFiXY-z-28" target="I38uoZIhNBEOroFiXY-z-33">
          <mxGeometry relative="1" as="geometry">
            <mxPoint x="60" y="310" as="targetPoint" />
            <Array as="points">
              <mxPoint x="60" y="353" />
            </Array>
          </mxGeometry>
        </mxCell>
        <mxCell id="I38uoZIhNBEOroFiXY-z-28" value="Get Every Card From CardIDs&amp;nbsp;" style="rounded=1;whiteSpace=wrap;html=1;shadow=0;labelBackgroundColor=none;strokeWidth=1;fontFamily=Verdana;fontSize=8;align=center;" vertex="1" parent="77e6c97f196da883-4">
          <mxGeometry x="30" y="190.63" width="70" height="45" as="geometry" />
        </mxCell>
        <mxCell id="I38uoZIhNBEOroFiXY-z-40" style="edgeStyle=orthogonalEdgeStyle;rounded=0;orthogonalLoop=1;jettySize=auto;html=1;" edge="1" parent="77e6c97f196da883-4" source="I38uoZIhNBEOroFiXY-z-33" target="I38uoZIhNBEOroFiXY-z-34">
          <mxGeometry relative="1" as="geometry" />
        </mxCell>
        <mxCell id="I38uoZIhNBEOroFiXY-z-41" style="edgeStyle=orthogonalEdgeStyle;rounded=0;orthogonalLoop=1;jettySize=auto;html=1;" edge="1" parent="77e6c97f196da883-4" source="I38uoZIhNBEOroFiXY-z-33">
          <mxGeometry relative="1" as="geometry">
            <mxPoint x="220" y="353.125" as="targetPoint" />
          </mxGeometry>
        </mxCell>
        <mxCell id="I38uoZIhNBEOroFiXY-z-33" value="GetCard" style="rhombus;whiteSpace=wrap;html=1;rounded=0;shadow=0;labelBackgroundColor=none;strokeWidth=1;fontFamily=Verdana;fontSize=8;align=center;" vertex="1" parent="77e6c97f196da883-4">
          <mxGeometry x="90" y="330" width="60" height="46.25" as="geometry" />
        </mxCell>
        <mxCell id="I38uoZIhNBEOroFiXY-z-34" value="&lt;font style=&quot;font-size: 9px;&quot;&gt;CardIDs&lt;/font&gt;" style="ellipse;whiteSpace=wrap;html=1;aspect=fixed;" vertex="1" parent="77e6c97f196da883-4">
          <mxGeometry x="100" y="400" width="40" height="40" as="geometry" />
        </mxCell>
        <mxCell id="I38uoZIhNBEOroFiXY-z-49" style="edgeStyle=orthogonalEdgeStyle;rounded=0;orthogonalLoop=1;jettySize=auto;html=1;entryX=1;entryY=0.5;entryDx=0;entryDy=0;" edge="1" parent="77e6c97f196da883-4" source="I38uoZIhNBEOroFiXY-z-48" target="I38uoZIhNBEOroFiXY-z-50">
          <mxGeometry relative="1" as="geometry">
            <mxPoint x="50" y="482.5" as="targetPoint" />
          </mxGeometry>
        </mxCell>
        <mxCell id="I38uoZIhNBEOroFiXY-z-48" value="Send Cards As An Array Back To Client" style="rounded=1;whiteSpace=wrap;html=1;shadow=0;labelBackgroundColor=none;strokeWidth=1;fontFamily=Verdana;fontSize=8;align=center;" vertex="1" parent="77e6c97f196da883-4">
          <mxGeometry x="90" y="460" width="70" height="45" as="geometry" />
        </mxCell>
        <mxCell id="I38uoZIhNBEOroFiXY-z-53" style="edgeStyle=orthogonalEdgeStyle;rounded=0;orthogonalLoop=1;jettySize=auto;html=1;" edge="1" parent="77e6c97f196da883-4" source="I38uoZIhNBEOroFiXY-z-50">
          <mxGeometry relative="1" as="geometry">
            <mxPoint x="30" y="530" as="targetPoint" />
          </mxGeometry>
        </mxCell>
        <mxCell id="I38uoZIhNBEOroFiXY-z-50" value="GetCards&lt;div&gt;Complete&lt;/div&gt;" style="rhombus;whiteSpace=wrap;html=1;rounded=0;shadow=0;labelBackgroundColor=none;strokeWidth=1;fontFamily=Verdana;fontSize=8;align=center;" vertex="1" parent="77e6c97f196da883-4">
          <mxGeometry y="458.75" width="60" height="46.25" as="geometry" />
        </mxCell>
        <mxCell id="I38uoZIhNBEOroFiXY-z-55" value="&lt;font style=&quot;font-size: 9px;&quot;&gt;Cards&lt;/font&gt;" style="ellipse;whiteSpace=wrap;html=1;aspect=fixed;" vertex="1" parent="77e6c97f196da883-4">
          <mxGeometry x="10" y="530" width="40" height="40" as="geometry" />
        </mxCell>
        <mxCell id="77e6c97f196da883-5" value="KV" style="swimlane;html=1;startSize=20;" parent="77e6c97f196da883-1" vertex="1">
          <mxGeometry x="560" y="20" width="160" height="730" as="geometry" />
        </mxCell>
        <mxCell id="I38uoZIhNBEOroFiXY-z-23" style="edgeStyle=orthogonalEdgeStyle;rounded=0;orthogonalLoop=1;jettySize=auto;html=1;entryX=1;entryY=0.5;entryDx=0;entryDy=0;" edge="1" parent="77e6c97f196da883-5" source="I38uoZIhNBEOroFiXY-z-19" target="I38uoZIhNBEOroFiXY-z-22">
          <mxGeometry relative="1" as="geometry" />
        </mxCell>
        <mxCell id="I38uoZIhNBEOroFiXY-z-19" value="Return Player--CardIDs" style="rounded=1;whiteSpace=wrap;html=1;shadow=0;labelBackgroundColor=none;strokeWidth=1;fontFamily=Verdana;fontSize=8;align=center;" vertex="1" parent="77e6c97f196da883-5">
          <mxGeometry x="30" y="65" width="110" height="45" as="geometry" />
        </mxCell>
        <mxCell id="I38uoZIhNBEOroFiXY-z-31" style="edgeStyle=orthogonalEdgeStyle;rounded=0;orthogonalLoop=1;jettySize=auto;html=1;entryX=0.5;entryY=0;entryDx=0;entryDy=0;" edge="1" parent="77e6c97f196da883-5" source="I38uoZIhNBEOroFiXY-z-22" target="I38uoZIhNBEOroFiXY-z-30">
          <mxGeometry relative="1" as="geometry" />
        </mxCell>
        <mxCell id="I38uoZIhNBEOroFiXY-z-22" value="Complete" style="rhombus;whiteSpace=wrap;html=1;rounded=0;shadow=0;labelBackgroundColor=none;strokeWidth=1;fontFamily=Verdana;fontSize=8;align=center;" vertex="1" parent="77e6c97f196da883-5">
          <mxGeometry y="190" width="60" height="46.25" as="geometry" />
        </mxCell>
        <mxCell id="I38uoZIhNBEOroFiXY-z-30" value="&lt;font style=&quot;font-size: 9px;&quot;&gt;CardIDs&lt;/font&gt;" style="ellipse;whiteSpace=wrap;html=1;aspect=fixed;" vertex="1" parent="77e6c97f196da883-5">
          <mxGeometry x="10" y="260" width="40" height="40" as="geometry" />
        </mxCell>
        <mxCell id="I38uoZIhNBEOroFiXY-z-43" style="edgeStyle=orthogonalEdgeStyle;rounded=0;orthogonalLoop=1;jettySize=auto;html=1;entryX=1;entryY=0.5;entryDx=0;entryDy=0;" edge="1" parent="77e6c97f196da883-5" source="I38uoZIhNBEOroFiXY-z-42" target="I38uoZIhNBEOroFiXY-z-44">
          <mxGeometry relative="1" as="geometry">
            <mxPoint x="75" y="490" as="targetPoint" />
            <Array as="points">
              <mxPoint x="75" y="483" />
            </Array>
          </mxGeometry>
        </mxCell>
        <mxCell id="I38uoZIhNBEOroFiXY-z-42" value="Return CardID--Card" style="rounded=1;whiteSpace=wrap;html=1;shadow=0;labelBackgroundColor=none;strokeWidth=1;fontFamily=Verdana;fontSize=8;align=center;" vertex="1" parent="77e6c97f196da883-5">
          <mxGeometry x="20" y="330" width="110" height="45" as="geometry" />
        </mxCell>
        <mxCell id="I38uoZIhNBEOroFiXY-z-45" style="edgeStyle=orthogonalEdgeStyle;rounded=0;orthogonalLoop=1;jettySize=auto;html=1;exitX=0.5;exitY=1;exitDx=0;exitDy=0;" edge="1" parent="77e6c97f196da883-5" source="I38uoZIhNBEOroFiXY-z-44">
          <mxGeometry relative="1" as="geometry">
            <mxPoint x="30.14285714285711" y="520" as="targetPoint" />
          </mxGeometry>
        </mxCell>
        <mxCell id="I38uoZIhNBEOroFiXY-z-44" value="Complete" style="rhombus;whiteSpace=wrap;html=1;rounded=0;shadow=0;labelBackgroundColor=none;strokeWidth=1;fontFamily=Verdana;fontSize=8;align=center;" vertex="1" parent="77e6c97f196da883-5">
          <mxGeometry y="460" width="60" height="46.25" as="geometry" />
        </mxCell>
        <mxCell id="I38uoZIhNBEOroFiXY-z-46" value="&lt;font style=&quot;font-size: 9px;&quot;&gt;Card&lt;/font&gt;" style="ellipse;whiteSpace=wrap;html=1;aspect=fixed;" vertex="1" parent="77e6c97f196da883-5">
          <mxGeometry x="10" y="520" width="40" height="40" as="geometry" />
        </mxCell>
        <mxCell id="I38uoZIhNBEOroFiXY-z-14" style="edgeStyle=orthogonalEdgeStyle;rounded=0;orthogonalLoop=1;jettySize=auto;html=1;entryX=0;entryY=0.5;entryDx=0;entryDy=0;" edge="1" parent="77e6c97f196da883-1" source="I38uoZIhNBEOroFiXY-z-13" target="77e6c97f196da883-8">
          <mxGeometry relative="1" as="geometry" />
        </mxCell>
        <mxCell id="I38uoZIhNBEOroFiXY-z-29" style="edgeStyle=orthogonalEdgeStyle;rounded=0;orthogonalLoop=1;jettySize=auto;html=1;entryX=1;entryY=0.5;entryDx=0;entryDy=0;" edge="1" parent="77e6c97f196da883-1" source="I38uoZIhNBEOroFiXY-z-22" target="I38uoZIhNBEOroFiXY-z-28">
          <mxGeometry relative="1" as="geometry" />
        </mxCell>
        <mxCell id="I38uoZIhNBEOroFiXY-z-47" style="edgeStyle=orthogonalEdgeStyle;rounded=0;orthogonalLoop=1;jettySize=auto;html=1;entryX=1;entryY=0.5;entryDx=0;entryDy=0;" edge="1" parent="77e6c97f196da883-1" source="I38uoZIhNBEOroFiXY-z-44" target="I38uoZIhNBEOroFiXY-z-48">
          <mxGeometry relative="1" as="geometry">
            <mxPoint x="520" y="503" as="targetPoint" />
          </mxGeometry>
        </mxCell>
        <mxCell id="I38uoZIhNBEOroFiXY-z-51" style="edgeStyle=orthogonalEdgeStyle;rounded=0;orthogonalLoop=1;jettySize=auto;html=1;entryX=1;entryY=0.5;entryDx=0;entryDy=0;" edge="1" parent="77e6c97f196da883-1" source="I38uoZIhNBEOroFiXY-z-50" target="I38uoZIhNBEOroFiXY-z-52">
          <mxGeometry relative="1" as="geometry">
            <mxPoint x="280" y="501.875" as="targetPoint" />
          </mxGeometry>
        </mxCell>
        <mxCell id="I38uoZIhNBEOroFiXY-z-64" style="edgeStyle=orthogonalEdgeStyle;rounded=0;orthogonalLoop=1;jettySize=auto;html=1;entryX=1;entryY=0.5;entryDx=0;entryDy=0;" edge="1" parent="77e6c97f196da883-1" source="I38uoZIhNBEOroFiXY-z-58" target="I38uoZIhNBEOroFiXY-z-62">
          <mxGeometry relative="1" as="geometry" />
        </mxCell>
      </root>
    </mxGraphModel>
  </diagram>
</mxfile>
